<svg width="42" height="42" viewBox="0 0 42 42" fill="none" xmlns="http://www.w3.org/2000/svg">
<rect width="42" height="42" fill="#EEF1F4"/>
<g clip-path="url(#clip0_1:2)">
<rect width="1440" height="12915" transform="translate(-81 -3875)" fill="#F6F6F6"/>
<rect x="-23" y="-261" width="988" height="362" rx="4" fill="white"/>
<circle cx="21" cy="21" r="21" fill="#E3FCEF"/>
<path d="M28.945 15.0175C28.3328 14.3946 27.3357 14.3946 26.7235 15.0175L18.2663 23.6219L15.2765 20.5801C14.6642 19.9571 13.6672 19.9571 13.0549 20.5801C12.4483 21.1972 12.4483 22.1936 13.0549 22.8108L17.1555 26.9827C17.7678 27.6056 18.7648 27.6056 19.377 26.9827L28.945 17.2482C29.5516 16.631 29.5516 15.6346 28.945 15.0175Z" fill="#00BF41"/>
</g>
<defs>
<clipPath id="clip0_1:2">
<rect width="1440" height="12915" fill="white" transform="translate(-81 -3875)"/>
</clipPath>
</defs>
</svg>
