<svg width="11" height="18" viewBox="0 0 11 18" fill="none" xmlns="http://www.w3.org/2000/svg">
<path d="M4.71094 18H6.03281L6.03984 16.418C9.01406 16.2 10.7156 14.4984 10.7156 12.2203C10.7156 9.62578 8.40234 8.62031 6.57422 8.17031L6.06094 8.03672L6.075 3.52266C7.38984 3.69844 8.28984 4.42969 8.42344 5.58281H10.5187C10.4625 3.43828 8.69063 1.83516 6.08203 1.62422L6.08906 0H4.76719L4.76016 1.63828C2.23594 1.89141 0.386719 3.46641 0.386719 5.7375C0.386719 7.74141 1.82109 8.91563 4.13438 9.54141L4.73906 9.70312L4.725 14.4914C3.35391 14.3227 2.29219 13.5773 2.17969 12.2203H0C0.133594 14.6461 1.88437 16.207 4.71797 16.418L4.71094 18ZM6.04688 14.4914L6.06094 10.0688C7.48828 10.4625 8.56406 10.9828 8.56406 12.1992C8.56406 13.4297 7.5375 14.2945 6.04688 14.4914ZM4.74609 7.68516C3.69844 7.37578 2.54531 6.82031 2.55234 5.61094C2.55234 4.55625 3.38906 3.73359 4.75312 3.52969L4.74609 7.68516Z" fill="#23BF57"/>
</svg>
