<svg xmlns="http://www.w3.org/2000/svg"  xmlns:xlink="http://www.w3.org/1999/xlink" x="0px" y="0px"
   viewBox="0 0 459 100" style="enable-background:new 0 0 459 100;" xml:space="preserve">
  <path d="M252.58 79.0322C260.967 79.0322 265.484 76.1289 265.484 70.3225C265.484 64.516 260.967 61.2902 251.935 61.2902C248.709 61.2902 244.838 61.6128 240.322 62.258V42.5806C243.871 42.9031 247.096 43.2257 250.322 43.2257C259.354 43.2257 263.871 40.6451 263.871 34.1935C263.871 28.0644 259.677 25.1612 250.967 25.1612C245.484 25.1612 238.387 26.7741 229.677 29.3548V8.70959C237.419 5.80637 246.774 4.83862 257.742 4.83862C281.613 4.83862 295.484 15.4838 295.484 31.9354C295.484 41.9354 289.032 49.3548 277.742 51.9354C290.322 54.516 296.774 61.6128 296.774 72.5806C296.774 89.6773 282.903 99.6773 256.129 99.6773C247.096 99.6773 238.387 98.387 229.354 96.1289V74.8386C238.387 77.4193 246.129 79.0322 252.58 79.0322ZM352.258 38.387C370.967 38.387 383.548 50.3225 383.548 67.4193C383.548 86.1289 369.354 99.0322 346.774 99.0322C320.322 99.0322 303.225 81.9354 303.225 54.1935C303.225 22.5806 321.29 4.83862 353.871 4.83862C360.967 4.83862 368.387 5.80636 376.129 7.41927V28.0644C369.354 25.8064 362.258 24.8386 355.161 24.8386C340.645 24.8386 334.193 30.9677 333.871 44.1935C338.709 39.9999 344.516 38.387 352.258 38.387ZM354.838 66.7741C354.838 59.3548 350.645 54.516 344.516 54.516C338.387 54.516 334.516 59.0322 334.516 66.7741C334.516 74.1935 338.709 79.0322 344.516 79.0322C350.967 79.0322 354.838 74.1935 354.838 66.7741ZM392.903 7.09669H454.516V28.7096H421.613V42.258C424.193 42.258 426.129 41.9354 426.774 41.9354C447.096 41.9354 458.064 52.5806 458.064 70.3225C458.064 88.7096 444.516 99.3548 418.709 99.3548C409.677 99.3548 400.645 98.0644 391.613 95.8064V75.4838C398.709 77.4193 404.516 78.387 409.677 78.387C420.322 78.387 425.806 74.8386 425.806 68.0644C425.806 60.6451 420 56.7741 408.064 56.7741C402.903 56.7741 398.064 57.7418 392.903 59.0322V7.09669Z" fill="#FFE418"/>
  <path d="M0 0H31.2903V38.0645C35.4839 31.9355 41.6129 29.0323 50 29.0323C68.0645 29.0323 78.3871 41.9355 78.3871 64.8387C78.3871 86.7742 68.0645 100 50.6452 100C40 100 32.9032 96.129 29.0323 87.4194V99.0323H0V0ZM30.3226 64.1935C30.3226 74.1935 32.5806 79.0323 38.0645 79.0323C43.5484 79.0323 45.8065 74.1935 45.8065 64.1935C45.8065 54.1935 43.5484 49.3548 38.0645 49.3548C32.5806 49.3548 30.3226 54.1935 30.3226 64.1935ZM158.065 70.6452H114.839C115.484 78.0645 121.29 81.6129 131.613 81.6129C139.032 81.6129 146.452 80.3226 153.871 77.4194V94.8387C146.774 97.7419 136.774 99.3548 125.161 99.3548C98.7097 99.3548 84.1936 86.4516 84.1936 63.5484C84.1936 41.2903 98.3871 27.7419 121.613 27.7419C147.742 27.7419 157.742 40 157.742 66.4516L158.065 70.6452ZM130.968 57.7419V55.8064C130.968 48.0645 128.065 43.871 122.903 43.871C117.419 43.871 114.839 48.3871 114.839 56.129V58.0645H130.968V57.7419ZM219.677 29.3548V49.3548H205.161V65.4839C205.161 73.871 206.452 77.7419 212.581 77.7419C214.194 77.7419 216.452 77.4194 219.355 76.7742V96.129C212.581 98.0645 205.806 99.0323 198.71 99.0323C190 99.0323 183.226 96.129 179.355 91.2903C174.194 84.8387 174.194 76.4516 174.194 65.4839V49.0323H163.226V29.3548H174.194V14.5161L205.484 4.51613V29.6774H219.677V29.3548Z" fill="#0C6C4E"/>
</svg>
